# xmcd
#
# Track frame offsets:
#	187
#	15620
#	28327
#	54735
#	65617
#	80897
#	93890
#	106535
#	121110
#	135477
#	149625
#	161070
#	173542
#
# Disc length: 2973
#
# Revision: 2
# Processed by: cddbd v1.5.1PL0 Copyright (c) Steve Scherf et al.
# Submitted via: CDex 1.51
# Normalized: r1:TDELIM( - )
#
DISCID=ac0b9b0d
DTITLE=Various Artist - V.S.O.P. Album (Mercury 40th Anniversary V.S.O.P. Album) Disc 1
DYEAR=1984
DGENRE=Jazz
TTITLE0=Erroll Garner - All The Things You Are
TTITLE1=Erroll Garner - My Heart Stood Still
TTITLE2=Erroll Garner - Sleep
TTITLE3=Gene Ammons - Jay Jay
TTITLE4=Jay McShann - You Didn't Tell Me
TTITLE5=Jay McShann - The Duke And The Brute
TTITLE6=Jay McShann - Reach
TTITLE7=Arnett Cobb - Operation (Take 3)
TTITLE8=Arnett Cobb - Operation (Take 5)
TTITLE9=Arnett Cobb - Operation (Take 8)
TTITLE10=Clark Terry - Money In The Bank (Take 7)
TTITLE11=Clark Terry - Money In The Bank (Take 12)
TTITLE12=Dinah Washington - Blue Skies
EXTD=YEAR: 1984
EXTT0=
EXTT1=
EXTT2=
EXTT3=
EXTT4=
EXTT5=
EXTT6=
EXTT7=
EXTT8=
EXTT9=
EXTT10=
EXTT11=
EXTT12=
PLAYORDER=
